<?xml version="1.0" standalone="no"?>
<!DOCTYPE svg PUBLIC "-//W3C//DTD SVG 20010904//EN"
 "http://www.w3.org/TR/2001/REC-SVG-20010904/DTD/svg10.dtd">
<svg version="1.0" xmlns="http://www.w3.org/2000/svg"
 width="300.000000pt" height="323.000000pt" viewBox="0 0 300.000000 323.000000"
 preserveAspectRatio="xMidYMid meet">
<metadata>
Created by potrace 1.10, written by Peter Selinger 2001-2011
</metadata>
<g transform="translate(0.000000,323.000000) scale(0.100000,-0.100000)"
fill="#000000" stroke="none">
<path d="M889 2771 c-88 -28 -154 -69 -218 -135 -32 -34 -70 -85 -85 -114 -74
-146 -75 -324 -1 -465 14 -27 25 -51 25 -53 0 -2 -27 -4 -59 -4 -166 0 -342
-113 -422 -272 -103 -205 -62 -438 104 -595 29 -27 68 -58 87 -70 56 -34 155
-63 225 -66 36 -1 65 -3 65 -5 0 -1 -11 -25 -25 -52 -73 -145 -73 -315 0 -461
133 -262 471 -354 719 -195 60 39 138 116 163 163 10 18 20 33 23 33 3 0 14
-15 23 -33 47 -86 166 -180 277 -218 88 -30 219 -30 310 0 295 95 436 434 295
711 -14 27 -25 51 -25 53 0 2 12 2 28 0 41 -6 162 22 227 52 67 32 161 117
204 184 120 186 99 436 -50 605 -87 99 -229 166 -350 166 -32 0 -59 2 -59 5 0
2 13 30 29 62 70 140 68 311 -5 455 -36 71 -132 169 -202 206 -169 89 -364 83
-518 -16 -65 -42 -145 -125 -166 -172 -16 -37 -20 -37 -36 0 -38 85 -176 195
-290 230 -82 26 -215 26 -293 1z m221 -3 c30 -5 64 -13 75 -17 11 -5 40 -17
64 -27 24 -10 56 -30 73 -45 16 -16 32 -29 36 -31 19 -7 46 -38 79 -90 42 -65
64 -73 83 -27 7 16 41 59 75 94 122 127 298 176 478 134 26 -6 47 -15 47 -20
0 -5 7 -9 15 -9 60 0 193 -120 243 -220 42 -84 45 -97 49 -211 4 -99 1 -114
-53 -251 -10 -26 -15 -50 -11 -54 4 -4 37 -9 74 -11 69 -3 127 -17 152 -36 7
-6 20 -12 28 -13 56 -9 170 -121 218 -214 97 -192 63 -413 -87 -561 -94 -94
-175 -132 -303 -144 -37 -3 -72 -8 -77 -11 -14 -9 -9 -31 25 -101 31 -66 32
-73 32 -193 l0 -126 -40 -79 c-69 -139 -200 -246 -333 -273 -81 -15 -231 -4
-277 21 -11 6 -26 12 -33 13 -22 4 -106 62 -140 97 -19 19 -48 56 -65 83 -18
26 -37 49 -43 51 -7 2 -25 -15 -40 -39 -58 -85 -181 -191 -236 -202 -7 -2 -20
-6 -28 -9 -104 -44 -257 -31 -385 32 -74 37 -178 139 -169 168 5 14 4 15 -4 4
-8 -11 -15 -3 -32 34 -38 83 -50 137 -50 225 0 91 14 148 53 227 14 27 22 54
18 61 -3 6 -36 13 -72 16 -36 3 -94 15 -130 27 -72 23 -172 86 -162 102 3 5 1
7 -5 3 -10 -6 -82 69 -82 87 0 4 -6 15 -14 23 -52 51 -81 250 -53 356 27 104
139 270 169 252 6 -4 8 -3 4 4 -7 12 32 42 94 70 72 32 117 44 181 46 73 2 85
15 57 62 -58 98 -76 277 -39 387 24 73 75 157 126 206 43 42 124 91 149 91 9
0 16 4 16 9 0 9 24 17 86 27 21 3 41 8 43 10 7 6 60 3 121 -8z"/>
</g>
</svg>

